<svg xmlns="http://www.w3.org/2000/svg" viewBox="0 0 882.88 337.07"><defs><style>.cls-1{fill:none;stroke:#e4002b;stroke-linecap:round;stroke-linejoin:round;stroke-width:2px;}</style></defs><title>ACAD VEC</title><g id="Layer_2" data-name="Layer 2"><g id="Layer_1-2" data-name="Layer 1"><polygon class="cls-1" points="628.61 261.4 475.22 285.06 286.23 314.22 446.97 227.96 628.61 261.4"/><polygon class="cls-1" points="600.99 265.66 475.22 285.06 313.22 310.06 448.39 238.03 600.99 265.66"/><polygon class="cls-1" points="569.21 270.56 475.22 285.06 349.21 304.5 451.85 248.74 569.21 270.56"/><polyline class="cls-1" points="483.87 330.47 615.97 312.13 615.97 281.92 628.61 268.43 628.61 261.4 651.03 290.33 658.25 285.34 633.93 251.52 444.69 218.46 283.19 305.67 286.23 314.22 287.25 320.86 628.61 268.43 650.08 296.36 638.2 310.14 615.97 281.92 308.17 327.52 287.25 320.86"/><polyline class="cls-1" points="476.72 224.06 739.66 177.61 745.08 187.02 788.97 179.7 792.28 205.92"/><polyline class="cls-1" points="349.21 270.02 349.21 246.58 413.71 235.19"/><polyline class="cls-1" points="265.13 284.91 265.13 261.97 349.21 247.44"/><line class="cls-1" x1="265.13" y1="327.52" x2="265.13" y2="289.62"/><line class="cls-1" x1="615.97" y1="312.13" x2="635.3" y2="333.01"/><line class="cls-1" x1="638.2" y1="310.14" x2="638.2" y2="336.07"/><line class="cls-1" x1="739.66" y1="177.61" x2="742.88" y2="205.26"/><line class="cls-1" x1="745.08" y1="187.02" x2="747.33" y2="204.52"/><line class="cls-1" x1="348.62" y1="270.34" x2="338.29" y2="272.04"/><polyline class="cls-1" points="806.45 203.64 756.86 211.62 752.68 203.64 550.7 236.98"/><polyline class="cls-1" points="344.97 272.31 255.16 286.48 265.13 293.89"/><polyline class="cls-1" points="658.25 285.34 750.59 272.21 744.13 212.19 752.68 203.64"/><polyline class="cls-1" points="265.13 271.09 243.66 274.32 243.66 327.52"/><line class="cls-1" x1="243.66" y1="291.99" x2="1" y2="330.74"/><polygon class="cls-1" points="660.77 276.43 656.8 236.81 704.59 229.37 708.08 269.19 660.77 276.43"/><line class="cls-1" x1="706.1" y1="249.28" x2="658.79" y2="256.52"/><polyline class="cls-1" points="333.33 278.59 265.13 289.62 255.16 286.48"/><polyline class="cls-1" points="809.92 209.53 749.78 219.08 744.13 212.19 569.95 240.34"/><polyline class="cls-1" points="756.86 211.62 749.78 219.08 755.27 267.53"/><line class="cls-1" x1="712.98" y1="217.23" x2="718.61" y2="276.76"/><line class="cls-1" x1="646.57" y1="227.96" x2="651.12" y2="275.43"/><line class="cls-1" x1="630.84" y1="230.5" x2="632.76" y2="251.32"/><line class="cls-1" x1="610.15" y1="233.85" x2="611.19" y2="247.55"/><polyline class="cls-1" points="748.12 186.51 731.97 150.44 327.55 224.49 334.25 230.05 334.25 233.12 350.54 245.63"/><polyline class="cls-1" points="731.97 150.44 728.41 157.94 728.55 162.5 718.61 173.81 719.57 181.16"/><polyline class="cls-1" points="727.11 151.33 711.45 116.05 715.15 139.71 350.54 208.2 350.54 220.28"/><polyline class="cls-1" points="711.45 116.05 611.19 135.84 613.53 166.24"/><polyline class="cls-1" points="569.21 174.5 566.9 144.59 548.51 148.22 550.08 178.06"/><polyline class="cls-1" points="493.58 188.59 492.01 159.37 474.27 162.87 475.08 192.03"/><polyline class="cls-1" points="351.97 207.93 351.97 187.02 434.64 170.7 435.3 199.44"/><line class="cls-1" x1="715.15" y1="139.71" x2="717.28" y2="153.13"/><line class="cls-1" x1="350.54" y1="215.23" x2="716.32" y2="147.09"/><line class="cls-1" x1="425.3" y1="201.31" x2="424.63" y2="172.67"/><line class="cls-1" x1="623.83" y1="164.32" x2="621.08" y2="133.89"/><line class="cls-1" x1="474.4" y1="167.55" x2="435.3" y2="175.08"/><line class="cls-1" x1="548.79" y1="153.23" x2="492.26" y2="164.11"/><line class="cls-1" x1="611.6" y1="141.14" x2="567.29" y2="149.67"/><polyline class="cls-1" points="434.31 224.07 350.54 238.87 334.25 233.12 728.55 162.5 736.53 178.16"/><line class="cls-1" x1="718.61" y1="173.81" x2="455.42" y2="220.34"/><line class="cls-1" x1="350.54" y1="245.63" x2="350.54" y2="238.87"/><line class="cls-1" x1="287.54" y1="320.95" x2="287.79" y2="327.52"/><line class="cls-1" x1="286.22" y1="286.21" x2="286.89" y2="303.67"/><polyline class="cls-1" points="293.14 300.3 292.78 294.46 309.06 291.7"/><polyline class="cls-1" points="765.32 280.21 650.08 296.36 651.03 290.33"/><polyline class="cls-1" points="394.09 333.01 615.97 300.73 638.2 326.1 772.73 308.14"/><path class="cls-1" d="M689.62,120.36c-7.59-16.9-59.8-32.63-133-22.55-66.29,9.12-105.91,31.69-115.81,47.95-8.66,14.23.33,24.81,5.06,26.73"/><path class="cls-1" d="M668.26,124.58c-21.73-9.58-61.54-15.11-111.46-8.24-64.11,8.82-102.16,30.75-111.52,47.77a7.34,7.34,0,0,0,.93,8.87"/><path class="cls-1" d="M682.16,100.79C675,84.87,626,66.9,557,76.4c-62.5,8.6-99.84,29.87-109.17,45.2a24.56,24.56,0,0,0-2.54,5.51"/><path class="cls-1" d="M697.3,118.84C687.79,90.68,631.6,77,556.39,87.31c-68.07,9.37-109.08,32.32-119.24,49-7.19,11.82-3.92,22.75.91,27.13"/><path class="cls-1" d="M674.68,92.4c0-18-25.93-74.11-72.8-79.85"/><path class="cls-1" d="M648.09,80.46c0-23.19-15.77-71.39-70.33-71.71"/><path class="cls-1" d="M597.31,73.76c0-17.56-9.25-67.58-25.94-67.58-13.54,0-19.24,2.42-20.52,3.42,4.42,2.14,8.71,41.83,6.14,66.8"/><path class="cls-1" d="M550.85,9.6c-35.63,7-48.31,20.93-48.31,79.08"/><path class="cls-1" d="M538.09,12.76c-16.31,0-62.15,12.66-62.15,86.85"/><path class="cls-1" d="M493.68,36.26c-20.92,12.88-48.4,44.77-48.4,90.85"/><path class="cls-1" d="M529.08,13.77c0-5,11.59-10.73,24-12.29,11.25-1.43,22.7.14,24.72,7.27"/><polyline class="cls-1" points="788.97 179.7 796.95 198.04 881.88 183.88"/><line class="cls-1" x1="797.91" y1="205.02" x2="796.95" y2="198.04"/><path class="cls-1" d="M524.78,157.86c-.32-5.59-.61-10.59-.84-13.87-.23-3.48,1.94-10.31,9-11.84s11,5.15,11.18,8.41.38,8,.66,13.44"/><path class="cls-1" d="M504.18,161.82c-.29-5-.55-9.42-.75-12.43-.32-4.8,2.18-11,8.78-12.19s9.62,4.22,9.87,9c.16,2.92.38,7.2.64,12"/><path class="cls-1" d="M466.56,169c-.07-1-.13-1.88-.19-2.83-.52-7.91,2.28-12.05,6-13.32,4.68-1.61,7.17,4.08,7.46,8.81"/><path class="cls-1" d="M456.51,171l0-.31C456.11,165,458.23,162,461,161c3.53-1.17,5.38,2.94,5.59,6.37l.1,1.64"/><path class="cls-1" d="M547.18,153.54c-.3-5.34-.58-10.1-.8-13.26-.23-3.49,2.22-10.77,9.53-11.69a9.6,9.6,0,0,1,11,8.23c.13,3.06.35,7.63.61,12.8"/><path class="cls-1" d="M600.61,143.26c-.22-3-.31-5.69-.5-7.83-.29-3.25,1.37-9,8.59-9.42,6.34-.39,10,4.53,11.17,8.12"/><path class="cls-1" d="M622,133.7a7.51,7.51,0,0,1,7-6.41c4.14-.42,6.52,1.19,7.91,3.33"/><line class="cls-1" x1="605.84" y1="142.24" x2="607.12" y2="160"/><line class="cls-1" x1="600.34" y1="143.26" x2="601.63" y2="161.02"/><line class="cls-1" x1="594.86" y1="144.37" x2="596.13" y2="162.04"/><line class="cls-1" x1="589.36" y1="145.42" x2="590.64" y2="163.07"/><line class="cls-1" x1="583.87" y1="146.48" x2="585.14" y2="164.09"/><line class="cls-1" x1="578.38" y1="147.54" x2="579.64" y2="165.11"/><line class="cls-1" x1="572.88" y1="148.6" x2="574.15" y2="166.13"/><line class="cls-1" x1="544.04" y1="154.12" x2="544.81" y2="171.68"/><line class="cls-1" x1="538.84" y1="155.15" x2="539.6" y2="172.68"/><line class="cls-1" x1="533.64" y1="156.45" x2="534.39" y2="173.66"/><line class="cls-1" x1="528.44" y1="157.61" x2="529.19" y2="174.64"/><line class="cls-1" x1="523.24" y1="158.77" x2="523.98" y2="175.62"/><line class="cls-1" x1="518.04" y1="159.93" x2="518.77" y2="176.6"/><line class="cls-1" x1="512.84" y1="161.09" x2="513.57" y2="177.58"/><line class="cls-1" x1="507.65" y1="162.25" x2="508.36" y2="178.55"/><line class="cls-1" x1="502.45" y1="163.42" x2="503.15" y2="179.53"/><line class="cls-1" x1="497.25" y1="164.58" x2="497.94" y2="180.51"/><line class="cls-1" x1="469.57" y1="168.48" x2="469.85" y2="185.79"/><line class="cls-1" x1="464.65" y1="169.43" x2="464.93" y2="186.71"/><line class="cls-1" x1="459.73" y1="170.38" x2="460" y2="187.64"/><line class="cls-1" x1="454.81" y1="171.31" x2="455.08" y2="188.56"/><line class="cls-1" x1="449.89" y1="172.27" x2="450.16" y2="189.49"/><line class="cls-1" x1="444.96" y1="173.22" x2="445.24" y2="190.41"/><line class="cls-1" x1="440.04" y1="174.17" x2="440.31" y2="191.34"/><path class="cls-1" d="M453.24,257.89c8-.69,14.61,9.62,9.31,17.19-5.13,7.32-16.63,6.75-19.38-2.09S447.73,258.36,453.24,257.89Z"/><path class="cls-1" d="M463.88,281.26c2.94-3.33,19.09-16.06,23.37-9.6"/><path class="cls-1" d="M446.22,284c-4.28-3.71-19.29-8.74-23.19-2.47"/><line class="cls-1" x1="680.71" y1="233.09" x2="684.19" y2="272.81"/></g></g></svg>