<svg xmlns="http://www.w3.org/2000/svg" viewBox="0 0 113.14 97.19">
  <defs>
    <style>
      .cls-1 {
        fill: none;
        stroke: #fff;
        stroke-width: 1.25px;
      }

      .cls-2 {
        fill: #fff;
      }

      .cls-3 {
        fill: #b1b3b6;
      }
    </style>
  </defs>
  <title>Asset 1</title>
  <g id="Layer_2" data-name="Layer 2">
    <g id="Layer_1-2" data-name="Layer 1">
      <g id="Layer_2-2" data-name="Layer 2">
        <g id="Layer_1-2-2" data-name="Layer 1-2">
          <path class="cls-2"
            d="M67.88,85.61a3,3,0,1,1,3,3,3,3,0,0,1-3-3m5.29,0A2.28,2.28,0,1,0,70.89,88a2.32,2.32,0,0,0,2.28-2.36v-.06m-3.44-1.72H71c.82,0,1.26.29,1.26,1a.85.85,0,0,1-.78.92h-.11l.92,1.5h-.66l-.88-1.47h-.38v1.47h-.64Zm.64,1.46h.56c.37,0,.7,0,.7-.51s-.37-.47-.7-.47h-.56Z" />
          <polygon class="cls-2"
            points="96.58 34.84 86.9 34.84 86.34 34.84 86.1 35.35 79.08 49.96 72.04 35.34 71.79 34.84 71.23 34.84 61.88 34.84 61 34.84 61 35.73 61 40.72 61 41.61 61.88 41.61 63.48 41.61 63.48 62.52 61.75 62.52 60.86 62.52 60.86 63.41 60.86 68.39 60.86 69.29 61.75 69.29 72.25 69.29 73.14 69.29 73.14 68.39 73.14 63.41 73.14 62.52 72.25 62.52 70.44 62.52 70.44 47.68 78.28 63.86 79.08 65.5 79.89 63.86 87.81 47.64 87.81 62.52 86.08 62.52 85.19 62.52 85.19 63.41 85.19 68.39 85.19 69.29 86.08 69.29 96.58 69.29 97.47 69.29 97.47 68.39 97.47 63.41 97.47 62.52 96.58 62.52 94.77 62.52 94.77 41.61 96.58 41.61 97.47 41.61 97.47 40.72 97.47 35.73 97.47 34.84 96.58 34.84" />
          <path class="cls-2"
            d="M35.59,62.5H32.8l-9.09-21h1.76V34.72H10.85v6.77h2l-9.08,21H0v6.77H13.25V62.5H11.32L12.83,59H23.76l1.5,3.49h-2v6.77H36.48V62.5ZM20.83,52.24H15.75l2.54-5.87Z" />
          <polygon class="cls-2"
            points="85.47 8.58 11.77 8.58 10.75 8.58 10.75 9.6 10.75 29.28 10.75 30.3 11.77 30.3 24.5 30.3 25.51 30.3 25.51 29.28 25.51 21.97 41.24 21.97 41.24 73.85 33.92 73.85 32.9 73.85 32.9 74.87 32.9 87.6 32.9 88.62 33.92 88.62 63.31 88.62 64.33 88.62 64.33 87.6 64.33 74.87 64.33 73.85 63.31 73.85 56 73.85 56 21.97 71.63 21.97 71.63 29.19 71.63 30.21 72.65 30.21 85.47 30.21 86.48 30.21 86.48 29.19 86.48 9.6 86.48 8.58 85.47 8.58" />
          <polygon class="cls-3" points="58.19 79.91 61.3 76.7 61.3 85.49 58.19 82.52 58.19 79.91" />
          <polygon class="cls-3" points="53 76.94 49.88 80.01 49.88 15.85 53 18.96 53 76.94" />
          <polygon class="cls-3" points="16.99 14.73 13.79 11.61 81.9 11.61 77.87 14.73 16.99 14.73" />
          <polygon class="cls-3" points="83.55 27.36 80.43 24.39 80.43 16.46 83.55 13.26 83.55 27.36" />
        </g>
      </g>
    </g>
  </g>
</svg>